<svg width="41" height="41" viewBox="0 0 41 41" fill="none" xmlns="http://www.w3.org/2000/svg">
<path d="M15.6174 36.8755C12.755 36.0233 10.2071 34.4411 8.18964 32.3447C8.94228 31.4527 9.39584 30.3002 9.39584 29.0418C9.39584 26.2113 7.1013 23.9168 4.27084 23.9168C4.09962 23.9168 3.93036 23.9252 3.76345 23.9416C3.53608 22.8299 3.41667 21.679 3.41667 20.5001C3.41667 18.7144 3.69066 16.9926 4.19891 15.3746C4.22284 15.3749 4.24682 15.3751 4.27084 15.3751C7.1013 15.3751 9.39584 13.0806 9.39584 10.2501C9.39584 9.43753 9.20673 8.66921 8.87018 7.98657C10.8458 6.14959 13.2571 4.77482 15.932 4.03436C16.7796 5.69576 18.507 6.83346 20.5 6.83346C22.493 6.83346 24.2204 5.69576 25.068 4.03436C27.7429 4.77482 30.1542 6.14959 32.1298 7.98657C31.7933 8.66921 31.6042 9.43753 31.6042 10.2501C31.6042 13.0806 33.8987 15.3751 36.7292 15.3751C36.7532 15.3751 36.7772 15.3749 36.8011 15.3746C37.3093 16.9926 37.5833 18.7144 37.5833 20.5001C37.5833 21.679 37.4639 22.8299 37.2365 23.9416C37.0696 23.9252 36.9004 23.9168 36.7292 23.9168C33.8987 23.9168 31.6042 26.2113 31.6042 29.0418C31.6042 30.3002 32.0577 31.4527 32.8103 32.3447C30.7929 34.4411 28.245 36.0233 25.3826 36.8755C24.722 34.809 22.7858 33.3126 20.5 33.3126C18.2143 33.3126 16.278 34.809 15.6174 36.8755Z" stroke="white" stroke-width="2" strokeLinecap="round"/>
<path d="M20.5 26.4791C23.8022 26.4791 26.4792 23.8022 26.4792 20.5C26.4792 17.1978 23.8022 14.5208 20.5 14.5208C17.1978 14.5208 14.5208 17.1978 14.5208 20.5C14.5208 23.8022 17.1978 26.4791 20.5 26.4791Z" stroke="white" stroke-width="2" stroke-linejoin="round"/>
</svg>
